<svg width="22" height="26" viewBox="0 0 22 26" fill="none" xmlns="http://www.w3.org/2000/svg">
<path d="M13.6667 0C13.8508 0 14 0.149238 14 0.333333V7.86275C14 8.41503 14.4477 8.86275 15 8.86275H21C21.1841 8.86275 21.3333 9.01198 21.3333 9.19608V22.3333C21.3333 24.3584 19.6917 26 17.6667 26H4.33332C2.30828 26 0.666656 24.3584 0.666656 22.3333V3.66667C0.666656 1.64162 2.30828 0 4.33332 0H13.6667Z" fill="#3C486B"/>
<path d="M16.4482 0.517848C16.2568 0.363327 16 0.51952 16 0.765514V6.52941C16 6.71351 16.1492 6.86275 16.3333 6.86275H20.7311C20.888 6.86275 20.987 6.69736 20.8956 6.56993L16.878 0.972732C16.7544 0.800477 16.6095 0.647999 16.4482 0.517848Z" fill="#3C486B"/>
</svg>
