<svg width="45" height="45" viewBox="0 0 45 45" fill="none" xmlns="http://www.w3.org/2000/svg">
<path d="M30.1235 16.8655C30.6726 16.3163 30.6726 15.4259 30.1235 14.8767C29.5743 14.3276 28.6839 14.3276 28.1347 14.8767L22.5 20.5115L16.8652 14.8767C16.3161 14.3276 15.4257 14.3276 14.8765 14.8767C14.3273 15.4259 14.3273 16.3163 14.8765 16.8655L20.5112 22.5002L14.8765 28.135C14.3273 28.6842 14.3273 29.5745 14.8765 30.1237C15.4257 30.6729 16.316 30.6729 16.8652 30.1237L22.5 24.4889L28.1347 30.1237C28.6839 30.6729 29.5743 30.6729 30.1235 30.1237C30.6727 29.5745 30.6727 28.6842 30.1235 28.135L24.4887 22.5002L30.1235 16.8655Z" fill="#3C486B" fill-opacity="0.77"/>
</svg>
