<svg width="35" height="35" viewBox="0 0 35 35" fill="none" xmlns="http://www.w3.org/2000/svg">
<path fill-rule="evenodd" clip-rule="evenodd" d="M12.0313 7.29167C12.0313 5.07677 13.8268 3.28125 16.0417 3.28125H18.9583C21.1732 3.28125 22.9688 5.07677 22.9688 7.29167V10.2083C22.9688 10.8124 22.4791 11.3021 21.875 11.3021H13.125C12.5209 11.3021 12.0313 10.8124 12.0313 10.2083V7.29167ZM16.0417 5.46875C15.0349 5.46875 14.2188 6.2849 14.2188 7.29167V9.11458H20.7813V7.29167C20.7813 6.2849 19.9651 5.46875 18.9583 5.46875H16.0417Z" fill="#3C486B"/>
<path fill-rule="evenodd" clip-rule="evenodd" d="M9.4601 7.18779C9.64447 7.0994 9.84917 7.24008 9.84879 7.44454L9.84375 10.2083C9.84375 12.0205 11.3128 13.4896 13.125 13.4896H21.875C23.6872 13.4896 25.1563 12.0205 25.1563 10.2083V7.44371C25.1563 7.23948 25.3608 7.09917 25.545 7.18746C27.2732 8.01601 28.4375 9.78073 28.4375 11.7913V27.0884C28.4375 29.5832 26.5791 31.6874 24.1034 31.9957C19.7181 32.5419 15.2819 32.5419 10.8966 31.9957C8.42087 31.6874 6.5625 29.5832 6.5625 27.0884V11.7913C6.5625 9.78099 7.73152 8.01648 9.4601 7.18779ZM21.875 17.5C22.4791 17.5 22.9688 17.9897 22.9688 18.5938C22.9688 19.1978 22.4791 19.6875 21.875 19.6875H13.125C12.5209 19.6875 12.0313 19.1978 12.0313 18.5938C12.0313 17.9897 12.5209 17.5 13.125 17.5H21.875ZM20.4167 21.875C21.0207 21.875 21.5104 22.3647 21.5104 22.9688C21.5104 23.5728 21.0207 24.0625 20.4167 24.0625H13.125C12.5209 24.0625 12.0313 23.5728 12.0313 22.9688C12.0313 22.3647 12.5209 21.875 13.125 21.875H20.4167Z" fill="#3C486B"/>
</svg>
